<?xml version="1.0" encoding="utf-8"?>
<!-- Generator: Adobe Illustrator 24.0.0, SVG Export Plug-In . SVG Version: 6.00 Build 0)  -->
<svg version="1.1" id="Layer_1" xmlns="http://www.w3.org/2000/svg" xmlns:xlink="http://www.w3.org/1999/xlink" x="0px" y="0px"
	 viewBox="0 0 352.9 110.3" style="enable-background:new 0 0 352.9 110.3;" xml:space="preserve">
<style type="text/css">
	.st0{fill:#023E7D;}
	.st1{fill:#FFFFFF;}
</style>
<path class="st0" d="M337.2,65.6H44.8c-2.7,0-4.9-2.2-4.9-4.9V5.5c0-2.7,2.2-4.9,4.9-4.9h292.4c2.7,0,4.9,2.2,4.9,4.9v55.3
	C342.1,63.4,339.9,65.6,337.2,65.6z"/>
<g>
	<path class="st1" d="M57.6,6.5c0.6,0,1.2,0.5,1.8,1.5c0.7,1,1,1.8,1,2.4c0,0.6-0.1,1-0.4,1c-0.1,0-0.4,0-0.8-0.1
		c-0.4-0.1-0.7-0.1-1-0.1c-1,0-2.2,0.6-3.5,1.9s-2.5,2.8-3.4,4.6s-1.4,3.3-1.4,4.6c0,0.6,0.1,1.1,0.3,1.4s0.6,0.4,1.1,0.4
		c1.4,0,2.8-0.2,4.2-0.6s2.6-0.8,3.5-1.3c0.9-0.4,1.4-0.6,1.6-0.6c0.1,0,0.3,0.1,0.4,0.3c0.1,0.2,0.2,0.5,0.2,0.8
		c0,0.7-0.5,1.5-1.6,2.4s-2.4,1.7-3.9,2.4c-1.5,0.7-2.9,1-4.1,1c-1.2,0-2.5-0.7-3.9-2.2s-2-2.9-2-4.3c0-1.9,0.6-4,1.8-6.5
		c1.2-2.4,2.8-4.5,4.7-6.3C54,7.4,55.8,6.5,57.6,6.5z"/>
	<path class="st1" d="M67.3,28.5c-0.4,0-1-0.5-1.8-1.4s-1.1-1.7-1.1-2.2s0.3-2,0.9-4.6c-0.5-0.5-0.7-1.1-0.7-1.8
		c0-0.4,0.5-0.8,1.4-1.2c1.3-5.1,1.9-8.3,1.9-9.7c0-0.7,0.3-1,0.9-1c0.5,0,1.1,0.5,1.9,1.4s1.2,1.9,1.2,2.7c0,0.5-0.4,2.3-1.1,5.4
		c1.7-0.3,3.4-0.5,5.1-0.5c1-4,1.4-6.7,1.4-8c0-0.7,0.3-1,0.9-1c0.4,0,1,0.4,1.8,1.4s1.2,1.9,1.2,2.7c0,0.4-0.4,2.1-1.2,5.1
		c1,0.2,1.5,0.6,1.5,1.2s-0.7,1.1-2.2,1.5c-0.7,2.8-1.2,4.6-1.4,5.5c-0.2,0.9-0.4,1.6-0.5,2s-0.2,0.9-0.3,1.3
		c-0.2,0.8-0.4,1.2-0.6,1.2c-0.5,0-1.1-0.4-1.7-1.1c-0.7-0.8-1-1.5-1-2.3c0-0.4,0.4-2.4,1.3-5.8c-2.3,0.4-4.1,0.7-5.3,1
		c-0.6,2.4-1,4-1.2,4.9s-0.4,1.6-0.5,2C67.7,28,67.5,28.5,67.3,28.5z"/>
	<path class="st1" d="M89,28.5c-1.5,0-2.8-0.7-3.9-2.2c-1.2-1.4-1.7-2.9-1.7-4.3c0-1.8,0.3-3.7,1-5.6s1.6-3.6,2.6-5s2.2-2.6,3.5-3.5
		s2.4-1.4,3.5-1.4c1.9,0,3.5,0.8,4.8,2.5c1.2,1.6,1.9,3.5,1.9,5.5c0,2.1-0.5,4.1-1.6,6.2s-2.5,3.9-4.3,5.4
		C92.9,27.7,91,28.5,89,28.5z M92,23.3c1.2-1,2.2-2.3,3-3.9s1.3-3.1,1.3-4.5s-0.2-2.5-0.5-3.3c-0.4-0.8-0.9-1.2-1.5-1.2
		s-1.5,0.6-2.5,1.7s-2,2.6-2.8,4.5s-1.2,3.6-1.2,5.3c0,0.9,0.1,1.5,0.4,2.1c0.2,0.5,0.5,0.8,0.9,0.8C89.8,24.8,90.8,24.3,92,23.3z"
		/>
	<path class="st1" d="M107.5,28.5c-1.5,0-2.8-0.7-3.9-2.2c-1.2-1.4-1.7-2.9-1.7-4.3c0-1.8,0.3-3.7,1-5.6s1.6-3.6,2.6-5
		s2.2-2.6,3.5-3.5s2.4-1.4,3.5-1.4c1.9,0,3.5,0.8,4.8,2.5c1.2,1.6,1.9,3.5,1.9,5.5c0,2.1-0.5,4.1-1.6,6.2c-1,2.1-2.5,3.9-4.3,5.4
		C111.4,27.7,109.5,28.5,107.5,28.5z M110.5,23.3c1.2-1,2.2-2.3,3-3.9c0.9-1.6,1.3-3.1,1.3-4.5s-0.2-2.5-0.5-3.3
		c-0.4-0.8-0.9-1.2-1.5-1.2s-1.5,0.6-2.5,1.7s-2,2.6-2.8,4.5s-1.2,3.6-1.2,5.3c0,0.9,0.1,1.5,0.4,2.1c0.2,0.5,0.5,0.8,0.9,0.8
		C108.3,24.8,109.3,24.3,110.5,23.3z"/>
	<path class="st1" d="M134.3,22.3c0,1.7-0.8,3.1-2.4,4.4c-1.6,1.2-3.5,1.8-5.5,1.8c-2.1,0-3.7-0.5-5-1.5s-1.9-2.1-1.9-3.2
		s0.3-1.6,0.9-1.6c0.5,0,1,0.2,1.5,0.7s1.1,1,1.7,1.4c0.6,0.5,1.4,0.7,2.2,0.7c0.8,0,1.7-0.3,2.8-1c1-0.7,1.6-1.2,1.6-1.7
		s-0.6-1.2-1.7-2.3c-1.1-1.1-2.3-2.2-3.4-3.3c-1.1-1.1-1.7-2-1.7-2.7c0-0.6,0.1-1.3,0.3-2c0.2-0.7,0.5-1.2,0.9-1.5
		c1.1-1.1,2.5-2,4.2-2.7c1.7-0.8,3.2-1.2,4.5-1.2c0.8,0,1.4,0.3,1.9,1c0.5,0.6,0.7,1.3,0.7,2c0,0.3-0.2,0.5-0.7,0.7
		c-0.4,0.2-1.1,0.3-1.9,0.5c-0.8,0.2-1.7,0.4-2.6,0.8c-2,0.8-3,1.4-3,1.9c0,0.2,0.3,0.7,1,1.3s1.5,1.3,2.3,2s1.6,1.6,2.3,2.6
		C134,20.3,134.3,21.3,134.3,22.3z"/>
	<path class="st1" d="M143.3,15.9c1.1,0,2.2-0.1,3.4-0.2c1.2-0.1,2-0.2,2.3-0.2s0.5,0.1,0.7,0.2s0.3,0.3,0.3,0.5
		c0,0.9-0.8,1.6-2.5,2.1s-3.4,0.8-5.3,0.9c-0.8,2.4-1.2,3.9-1.2,4.6c0,0.3,0.2,0.5,0.5,0.5c2.3,0,4.6-0.3,7-0.9
		c0.8-0.2,1.3-0.3,1.4-0.3c0.4,0,0.6,0.3,0.6,0.8c0,0.7-0.5,1.4-1.6,2.1s-2.4,1.2-4,1.6s-3.2,0.6-4.7,0.6c-0.9,0-1.7-0.3-2.5-1
		c-0.7-0.7-1.1-1.5-1.1-2.4s0.5-3.3,1.5-7s1.6-6.5,1.6-8.4c0-0.1,0-0.2,0-0.4c0-0.3,0-0.5,0.1-0.7c0.2-0.6,0.8-0.9,1.8-1.1
		c1-0.1,2.8-0.2,5.4-0.2c4.3,0,6.5,0.5,6.5,1.4c0,0.6-0.5,1-1.6,1.3c-0.7,0.2-1.7,0.3-3,0.4c-1.9,0.2-3.7,0.5-5.2,1
		c0,1.4-0.2,2.9-0.7,4.7L143.3,15.9L143.3,15.9z"/>
	<path class="st1" d="M172.9,16.8c0.4,0,1-0.9,1.9-2.6s1.8-3.4,2.8-5.1c0.9-1.7,1.6-2.6,2.1-2.6c0.7,0,1.2,0.3,1.7,0.9
		c0.4,0.6,0.7,1.4,0.7,2.2c0,0.6-0.5,1.7-1.6,3.5c-1,1.7-2.4,3.8-3.9,6.3c-1.6,2.5-2.8,4.6-3.7,6.4c-0.3,0.6-0.7,1.1-1.3,1.7
		s-1.1,0.9-1.7,0.9c-0.8,0-1.2-0.6-1.2-1.9c0-0.8,0.8-2.5,2.3-5.3c0.2-0.4,0.4-0.8,0.5-1c-0.9-0.3-1.7-0.9-2.4-1.7
		c-0.7-0.8-1.3-1.7-1.7-2.6c-0.9-2.1-1.3-4-1.3-6c0-1.2,0.1-2.1,0.4-2.6c0.3-0.6,0.8-0.8,1.7-0.8c0.4,0,0.8,0.3,1,0.9
		s0.4,1.5,0.6,2.6c0.2,1.1,0.4,2.1,0.8,3c0.3,0.9,0.7,1.7,1.2,2.5C172.2,16.4,172.6,16.8,172.9,16.8z"/>
	<path class="st1" d="M187.3,28.5c-1.5,0-2.8-0.7-3.9-2.2c-1.2-1.4-1.7-2.9-1.7-4.3c0-1.8,0.3-3.7,1-5.6s1.6-3.6,2.6-5
		s2.2-2.6,3.5-3.5s2.4-1.4,3.5-1.4c1.9,0,3.5,0.8,4.8,2.5c1.2,1.6,1.9,3.5,1.9,5.5c0,2.1-0.5,4.1-1.6,6.2s-2.5,3.9-4.3,5.4
		C191.1,27.7,189.2,28.5,187.3,28.5z M190.2,23.3c1.2-1,2.2-2.3,3-3.9c0.9-1.6,1.3-3.1,1.3-4.5s-0.2-2.5-0.5-3.3
		c-0.4-0.8-0.9-1.2-1.5-1.2S191,11,190,12.1s-2,2.6-2.8,4.5s-1.2,3.6-1.2,5.3c0,0.9,0.1,1.5,0.4,2.1c0.2,0.5,0.5,0.8,0.9,0.8
		C188.1,24.8,189.1,24.3,190.2,23.3z"/>
	<path class="st1" d="M204.2,6.5c0.5,0,1.1,0.4,1.9,1.1c0.8,0.7,1.2,1.4,1.2,2.1s-0.4,2.5-1.1,5.3c-0.7,2.9-1.1,4.8-1.1,5.9
		s0.1,1.9,0.4,2.5c0.3,0.6,0.6,0.9,1.1,0.9s1.1-0.4,1.7-1.1c0.7-0.7,1.3-1.6,1.9-2.8c0.6-1.1,1.1-2.5,1.5-4c0.4-1.6,0.6-3,0.6-4.4
		s-0.1-2.4-0.2-3.2c-0.1-0.8-0.2-1.3-0.2-1.5c0-0.6,0.3-0.9,0.8-0.9c0.6,0,1.5,0.5,2.5,1.6s1.5,2.4,1.5,3.8s-0.3,3.2-0.8,5.1
		s-1.2,3.7-2.1,5.5c-0.9,1.7-2,3.1-3.3,4.3c-1.3,1.1-2.7,1.7-4.1,1.7c-1.4,0-2.7-0.7-3.8-2.2s-1.7-3-1.7-4.5s0.2-3.3,0.6-5.3
		c0.4-2,0.8-3.8,1.2-5.5c0.4-1.6,0.6-2.8,0.6-3.4C203.3,6.9,203.6,6.5,204.2,6.5z"/>
	<path class="st1" d="M233.9,27.4c0,0.8-0.6,1.2-1.7,1.2c-1.6,0-3.2-0.8-4.9-2.4s-2.9-3.3-3.6-5.1c-0.3,1-0.5,1.6-0.7,1.9
		c-0.1,0.3-0.3,0.9-0.5,1.6s-0.4,1.3-0.6,1.6c-0.1,0.4-0.3,0.7-0.4,1.1c-0.3,0.8-0.6,1.1-0.9,1.1c-0.5,0-1-0.4-1.7-1.2
		c-0.6-0.8-1-1.4-1-1.9s0.2-1.4,0.7-2.7c1.4-4,2.1-7.6,2.3-10.8c-0.4-0.3-0.7-0.7-1-1.3c-0.3-0.5-0.4-1-0.4-1.3
		c0-0.6,0.8-1.2,2.3-1.9s3.3-1,5.3-1s3.7,0.5,5.1,1.4s2,2.2,2,3.7c0,1.1-0.3,2.2-1,3.3c-0.7,1-1.4,1.9-2.2,2.5s-1.5,1.1-2.2,1.6
		s-1,0.8-1,0.9c0,0.5,0.2,0.9,0.5,1.4c0.3,0.4,0.8,0.9,1.3,1.5c0.6,0.6,1.1,1,1.5,1.4s0.8,0.7,1,1c0.3,0.3,0.5,0.5,0.8,0.8
		C233.6,26.6,233.9,27,233.9,27.4z M229.7,12.1c0-0.8-0.8-1.3-2.5-1.3c-0.8,0-1.7,0.2-2.8,0.7c0.5,0.8,0.7,1.5,0.7,2.1
		c0,1.2-0.2,2.4-0.5,3.8c0.2-0.2,0.6-0.4,1.2-0.9c0.6-0.4,1.1-0.7,1.4-1c0.3-0.2,0.7-0.6,1.1-1C229.3,13.8,229.7,13,229.7,12.1z"/>
	<path class="st1" d="M249.7,28.3c-0.5,0-1-0.4-1.6-1.2c-0.6-0.8-1-1.4-1-1.9s0.2-1.5,0.7-3c1.5-4.6,2.3-8.6,2.4-12
		c-0.7-0.7-1-1.3-1-1.7c0-0.7,0.8-1.3,2.3-1.9c1.6-0.6,3.1-0.9,4.5-0.9c2.4,0,4.3,0.6,5.7,1.7s2.1,2.5,2.1,4.3c0,2.2-1.1,4.2-3.2,6
		c-2.2,1.8-4.9,3-8.2,3.7c-0.9,3.4-1.5,5.4-1.8,5.9C250.1,28,249.9,28.3,249.7,28.3z M259.4,11.9c0-0.6-0.2-1.2-0.7-1.6
		c-0.5-0.4-1.1-0.6-1.9-0.6c-0.8,0-1.9,0.4-3.2,1.1c0.4,0.7,0.6,1.3,0.6,1.9c0,1.1-0.3,2.7-0.9,4.9c1.8-0.7,3.2-1.6,4.4-2.6
		C258.9,13.9,259.4,12.9,259.4,11.9z"/>
	<path class="st1" d="M267.2,28.5c-0.4,0-1-0.5-1.8-1.4s-1.1-1.7-1.1-2.2s0.3-2,0.9-4.6c-0.5-0.5-0.7-1.1-0.7-1.8
		c0-0.4,0.5-0.8,1.4-1.2c1.3-5.1,1.9-8.3,1.9-9.7c0-0.7,0.3-1,0.9-1c0.5,0,1.1,0.5,1.9,1.4c0.8,1,1.2,1.9,1.2,2.7
		c0,0.5-0.4,2.3-1.1,5.4c1.7-0.3,3.4-0.5,5.1-0.5c1-4,1.4-6.7,1.4-8c0-0.7,0.3-1,0.9-1c0.5,0,1.1,0.5,1.9,1.4c0.8,1,1.2,1.9,1.2,2.7
		c0,0.4-0.4,2.1-1.2,5.1c1,0.2,1.5,0.6,1.5,1.2s-0.7,1.1-2.2,1.5c-0.7,2.8-1.2,4.6-1.4,5.5c-0.2,0.9-0.4,1.6-0.5,2s-0.2,0.9-0.3,1.3
		c-0.2,0.8-0.4,1.2-0.6,1.2c-0.5,0-1.1-0.4-1.7-1.1c-0.7-0.8-1-1.5-1-2.3c0-0.4,0.4-2.4,1.3-5.8c-2.3,0.4-4.1,0.7-5.3,1
		c-0.6,2.4-1,4-1.2,4.9s-0.4,1.6-0.5,2C267.6,28,267.4,28.5,267.2,28.5z"/>
	<path class="st1" d="M288.9,28.5c-1.5,0-2.8-0.7-3.9-2.2c-1.2-1.4-1.7-2.9-1.7-4.3c0-1.8,0.3-3.7,1-5.6s1.6-3.6,2.6-5
		s2.2-2.6,3.5-3.5s2.4-1.4,3.5-1.4c1.9,0,3.5,0.8,4.8,2.5c1.2,1.6,1.9,3.5,1.9,5.5c0,2.1-0.5,4.1-1.6,6.2c-1,2.1-2.5,3.9-4.3,5.4
		C292.7,27.7,290.8,28.5,288.9,28.5z M291.9,23.3c1.2-1,2.2-2.3,3-3.9c0.9-1.6,1.3-3.1,1.3-4.5s-0.2-2.5-0.5-3.3
		c-0.4-0.8-0.9-1.2-1.5-1.2s-1.5,0.6-2.5,1.7s-2,2.6-2.8,4.5s-1.2,3.6-1.2,5.3c0,0.9,0.1,1.5,0.4,2.1c0.2,0.5,0.5,0.8,0.9,0.8
		C289.7,24.8,290.7,24.3,291.9,23.3z"/>
	<path class="st1" d="M308.1,10.8c-2.2,0.1-3.3,0.2-3.5,0.2c-0.5,0-1-0.3-1.4-0.9c-0.5-0.6-0.7-1.2-0.7-1.8c0-1,2.8-1.5,8.5-1.5
		c2.9,0,5.1,0.3,6.4,0.9c1.4,0.6,2.1,1.3,2.1,2.2c0,0.3-0.2,0.5-0.4,0.7c-0.3,0.2-0.7,0.3-1.1,0.3s-1.3,0-2.5-0.1s-2.3-0.1-3.3-0.1
		c0.1,0.2,0.1,0.5,0.1,0.8s-0.1,0.9-0.3,1.9c-0.2,0.9-0.6,2.2-1,3.9s-0.9,3.7-1.4,6c-0.5,2.4-0.8,3.8-1,4.2
		c-0.2,0.4-0.4,0.7-0.6,0.7c-0.4,0-0.9-0.4-1.6-1.2c-0.6-0.8-0.9-1.4-0.9-1.9s0.4-2.5,1.2-5.9C307.4,15.9,307.9,13,308.1,10.8z"/>
	<path class="st1" d="M323.7,28.5c-1.5,0-2.8-0.7-3.9-2.2c-1.2-1.4-1.7-2.9-1.7-4.3c0-1.8,0.3-3.7,1-5.6s1.6-3.6,2.6-5
		s2.2-2.6,3.5-3.5s2.4-1.4,3.5-1.4c1.9,0,3.5,0.8,4.8,2.5c1.2,1.6,1.9,3.5,1.9,5.5c0,2.1-0.5,4.1-1.6,6.2c-1,2.1-2.5,3.9-4.3,5.4
		C327.5,27.7,325.6,28.5,323.7,28.5z M326.6,23.3c1.2-1,2.2-2.3,3-3.9c0.9-1.6,1.3-3.1,1.3-4.5s-0.2-2.5-0.5-3.3
		c-0.4-0.8-0.9-1.2-1.5-1.2s-1.5,0.6-2.5,1.7s-2,2.6-2.8,4.5s-1.2,3.6-1.2,5.3c0,0.9,0.1,1.5,0.4,2.1c0.2,0.5,0.5,0.8,0.9,0.8
		C324.5,24.8,325.5,24.3,326.6,23.3z"/>
</g>
<path class="st0" d="M46.9,99c-0.1,1.3-0.6,2.6-1.5,3.6c-0.8,1-2.2,1.1-3.2,0.4c-0.5-0.4-1-0.8-1.5-1.3c-1.7-2-3.8-3.7-6-5
	c-4.7-3.1-9.5-6.2-14.2-9.3c-1.6-1.1-3.2-2.2-4.8-3.4c-1.4-1.1-1.5-2.3-0.4-3.8c0.2-0.3,0.5-0.6,0.8-0.8c0.5-0.4,1.2-0.5,1.8-0.2
	c0.7,0.4,1.3,0.9,2,1.3l19,12.7c0.3,0.2,0.7,0.4,1,0.5c0.1,0.1,0.3,0.1,0.4,0c0.2-0.2,0.3-0.4,0.4-0.6c-0.4-2.2-0.8-4.4-1.3-6.6
	c-1.1-4.9-2.2-9.7-3.4-14.6c-0.5-1.6,0.1-3.2,1.5-4.1c0.5-0.5,1.4-0.5,1.9,0c0.1,0.1,0.2,0.3,0.3,0.5c0.3,0.7,0.5,1.5,0.6,2.3
	c1.3,5.6,2.6,11.3,3.9,16.8c0.6,2.4,1.2,4.8,1.9,7.2C46.7,96.1,46.9,97.6,46.9,99z"/>
<path class="st0" d="M21.8,57.3c0.5-4.5,1.8-8.9,4-13.1c2.5-4.9,5.5-9.6,8.8-14.2c1.2-1.5,2.5-3,3.9-4.4c0.4-0.4,0.9-0.7,1.5-0.9
	c0.5-0.2,1.1-0.1,1.5,0.2c0.4,0.3,0.5,0.7,0.3,1.1c-0.3,0.4-0.6,0.9-1,1.3c-0.9,1.1-2,2.1-2.7,3.2c-3.8,5-7.1,10.4-9.7,15.9
	c-3.4,7.5-3.7,15.7-0.8,23.5c0.6,1.7,1.4,3.3,2.2,4.9c0.9,1.9,2.1,3.8,3.7,5.5c0.5,0.5,1,1,1.4,1.5c0.7,0.9,0.4,2.1-0.6,2.7
	c-0.6,0.5-1.6,0.5-2.3,0c-0.1,0-0.1-0.1-0.2-0.1c-1.6-1.4-2.9-3-4-4.6c-3-5.3-5.3-10.7-5.8-16.5C21.7,61.3,21.7,59.3,21.8,57.3z"/>
<g>
	<path class="st1" d="M56.5,35c0.3,0,0.6,0.1,0.8,0.3s0.3,0.4,0.3,0.7s-0.2,0.5-0.6,0.9c-0.4,0.4-1,0.8-1.6,1.2
		c-0.6,0.5-1.3,1-2.1,1.8c-0.8,0.7-1.4,1.5-2.1,2.3s-1.2,1.8-1.6,3c-0.4,1.2-0.6,2.3-0.6,3.4s0.2,2,0.5,2.8c0.3,0.7,0.7,1.3,1.2,1.8
		s1,0.9,1.5,1.2c0.5,0.4,1,0.7,1.5,0.9c1.1,0.5,1.6,0.9,1.6,1.3S55.1,57,54.6,57c-0.7,0-1.5-0.2-2.3-0.6c-0.8-0.4-1.7-0.9-2.5-1.5
		c-0.8-0.7-1.5-1.5-2-2.7c-0.5-1.1-0.8-2.4-0.8-3.8s0.3-2.9,0.8-4.4c0.6-1.5,1.2-2.8,2.1-3.8c0.8-1.1,1.7-2,2.6-2.8
		c0.9-0.8,1.7-1.4,2.4-1.8C55.7,35.2,56.2,35,56.5,35z"/>
	<path class="st1" d="M59.6,37.8c0-0.6,0.2-0.9,0.5-0.9s0.6,0.2,0.9,0.7c0.3,0.5,0.5,0.9,0.5,1.3c0,1-0.2,2.6-0.7,5
		s-1.1,4.7-1.9,7.1c1.5-2.7,2.8-4.7,3.8-5.9s1.9-1.8,2.6-1.8c0.4,0,0.8,0.3,1.4,1c0.5,0.7,0.8,1.4,0.8,2c0,0.7-0.2,1.7-0.6,3
		c-0.9,3.4-1.8,5.1-2.6,5.1c-0.3,0-0.5-0.2-0.5-0.7s0.2-1.2,0.5-2.3c0.8-2.3,1.2-3.9,1.2-4.7c0-0.3-0.1-0.5-0.2-0.7
		s-0.3-0.3-0.5-0.3s-0.4,0.1-0.7,0.3c-0.3,0.2-0.6,0.6-1,1.1c-0.5,0.7-1,1.4-1.6,2.3c-0.5,0.8-0.9,1.4-1,1.5
		c-0.1,0.2-0.3,0.5-0.6,0.9c-0.3,0.5-0.5,0.8-0.6,1s-0.3,0.5-0.5,0.7c-0.3,0.5-0.6,0.7-0.8,0.7s-0.4-0.2-0.7-0.5s-0.5-0.6-0.5-0.9
		s0.1-0.7,0.2-1.3c0.8-2.9,1.2-4.9,1.4-5.9C59.2,41.9,59.6,39.2,59.6,37.8z"/>
	<path class="st1" d="M71.8,43.3c0.3,0,0.6,0.2,0.8,0.5c0.3,0.3,0.4,0.7,0.4,1s-0.2,1.3-0.7,3c-0.4,1.6-1,3.5-1.6,5.5
		c-0.3,0.8-0.6,1.1-1,1.1c-0.2,0-0.4-0.1-0.5-0.3C69,53.9,69,53.7,69,53.5s0.1-0.6,0.2-1c0.1-0.5,0.3-1.1,0.5-1.9
		c0.2-0.8,0.4-1.4,0.5-1.9s0.3-1.1,0.4-1.7c0.1-0.6,0.2-1.1,0.3-1.5s0.2-0.8,0.3-1.2C71.3,43.6,71.5,43.3,71.8,43.3z M71.9,40
		c0-0.3,0.1-0.6,0.4-0.9c0.2-0.3,0.5-0.4,0.7-0.4s0.5,0.3,0.9,0.9c0.3,0.6,0.5,1.1,0.5,1.5c0,0.2-0.1,0.3-0.2,0.4
		c-0.1,0.1-0.3,0.2-0.4,0.2c-0.4,0-0.8-0.2-1.2-0.7C72.1,40.7,71.9,40.3,71.9,40z"/>
	<path class="st1" d="M83.3,48.4c0,0.6-0.3,1.3-0.8,2.1c-0.4,0.9-0.8,2.2-1.3,4s-0.9,3-1.2,3.7c-0.6,1.5-1.6,2.3-2.9,2.3
		c-1.1,0-2-0.3-2.7-0.9c-0.7-0.6-1.1-1.2-1.1-1.7c0-0.2,0.1-0.5,0.2-0.7s0.3-0.4,0.5-0.4s0.3,0.1,0.5,0.3s0.4,0.5,0.6,0.7
		c0.2,0.3,0.4,0.5,0.8,0.7s0.7,0.3,1,0.3s0.6,0,0.7-0.1c0.2-0.1,0.3-0.3,0.5-0.5s0.3-0.4,0.4-0.7s0.2-0.5,0.3-0.9
		c0.1-0.4,0.2-0.7,0.3-1c0.1-0.3,0.2-0.7,0.3-1.2c0.1-0.5,0.2-0.9,0.3-1.3c-1.2,0.9-2.1,1.3-2.9,1.3s-1.4-0.3-1.9-0.9
		c-0.5-0.6-0.8-1.3-0.8-2.1s0.3-1.8,0.9-3.1s1.4-2.5,2.4-3.5s2-1.6,3-1.6c0.6,0,1.1,0.2,1.6,0.7c0.7,0.8,1,1.9,1,3.3
		c0,0.2,0,0.3,0,0.4C83.2,47.9,83.3,48.1,83.3,48.4z M76,51.7c0,0.3,0.1,0.5,0.2,0.6c0.2,0.2,0.4,0.2,0.6,0.2c0.8,0,1.6-0.4,2.7-1.3
		c1-0.9,1.7-1.9,2.2-3.1c-0.1-0.2-0.1-0.5-0.2-0.9c0-0.4-0.1-0.7-0.1-1c0-0.2-0.1-0.5-0.3-0.7c-0.2-0.2-0.3-0.4-0.6-0.4
		c-0.6,0-1.2,0.4-2,1.3c-0.7,0.8-1.3,1.8-1.8,2.8C76.3,50.2,76,51.1,76,51.7z"/>
	<path class="st1" d="M87.7,37.8c0-0.6,0.2-0.9,0.5-0.9s0.6,0.2,0.9,0.7s0.5,0.9,0.5,1.3c0,1-0.2,2.6-0.7,5S87.8,48.6,87,51
		c1.5-2.7,2.8-4.7,3.8-5.9s1.9-1.8,2.6-1.8c0.4,0,0.8,0.3,1.4,1c0.5,0.7,0.8,1.4,0.8,2c0,0.7-0.2,1.7-0.6,3
		c-0.9,3.4-1.8,5.1-2.6,5.1c-0.3,0-0.5-0.2-0.5-0.7s0.2-1.2,0.5-2.3c0.8-2.3,1.2-3.9,1.2-4.7c0-0.3-0.1-0.5-0.2-0.7
		s-0.3-0.3-0.5-0.3s-0.4,0.1-0.7,0.3s-0.6,0.6-1,1.1c-0.5,0.7-1,1.4-1.6,2.3c-0.5,0.8-0.9,1.4-1,1.5c-0.1,0.2-0.3,0.5-0.6,0.9
		c-0.3,0.5-0.5,0.8-0.6,1s-0.3,0.5-0.5,0.7c-0.3,0.5-0.6,0.7-0.8,0.7s-0.4-0.2-0.7-0.5c-0.3-0.3-0.5-0.6-0.5-0.9s0.1-0.7,0.2-1.3
		c0.8-2.9,1.2-4.9,1.4-5.9C87.4,41.9,87.7,39.2,87.7,37.8z"/>
	<path class="st1" d="M114.5,56.5c0.2,0,0.3,0.1,0.4,0.2c0.1,0.1,0.2,0.3,0.2,0.4c0,0.2-0.3,0.5-0.9,0.9s-1.2,0.7-1.7,1.1
		c-0.5,0.4-0.9,0.7-1.2,0.9c-0.3,0.2-0.5,0.3-0.7,0.3s-0.4-0.2-0.6-0.5s-0.3-0.6-0.3-0.8s0-0.3,0-0.4c0-0.1,0.1-0.3,0.1-0.5
		c0.1-0.2,0.1-0.4,0.2-0.6c0.1-0.2,0.2-0.5,0.3-0.8c0.1-0.4,0.3-0.7,0.4-1s0.3-0.8,0.5-1.3s0.4-1.1,0.6-1.6
		c-0.5,0.5-1.1,0.9-1.7,1.2s-1.2,0.4-1.7,0.4s-1.1-0.3-1.7-0.9s-0.9-1.3-0.9-1.9s0.2-1.5,0.6-2.4c0.4-1,0.9-1.9,1.5-2.7
		c0.6-0.9,1.3-1.6,2.2-2.2c0.8-0.6,1.6-0.9,2.3-0.9s1.3,0.3,1.9,0.8c0.6,0.6,0.8,1,0.8,1.4s-0.1,0.6-0.4,0.6c-0.2,0-0.5-0.2-0.9-0.5
		s-0.7-0.5-1-0.5c-0.7,0-1.4,0.4-2.3,1.3c-0.9,0.9-1.6,1.8-2.1,2.9c-0.6,1.1-0.9,1.9-0.9,2.5c0,0.2,0.1,0.4,0.2,0.6
		c0.2,0.2,0.4,0.2,0.6,0.2c0.8,0,1.8-0.5,2.8-1.4c1.1-0.9,1.8-2.1,2.1-3.6c0.1-0.2,0.2-0.3,0.5-0.3c0.2,0,0.5,0.1,0.8,0.3
		s0.5,0.5,0.5,0.7s-0.1,0.7-0.4,1.4s-0.7,1.9-1.3,3.5c-0.6,1.6-1.2,3.1-1.6,4.4C113,56.9,113.9,56.5,114.5,56.5z"/>
	<path class="st1" d="M125.1,43.4c0.1-0.1,0.2-0.1,0.4-0.1c0.2,0,0.5,0.2,0.7,0.6c0.3,0.4,0.4,0.8,0.4,1.1c0,0.2-0.3,1.4-1,3.5
		s-1.2,3.8-1.5,5.1c-0.2,0.6-0.4,0.9-0.8,0.9c-0.2,0-0.4-0.1-0.5-0.2c-0.1-0.2-0.2-0.5-0.2-0.9s0.2-1.2,0.5-2.4
		c-0.6,1-1.3,1.9-2.1,2.5c-0.7,0.7-1.4,1-2,1s-1.2-0.3-1.7-0.9c-0.5-0.6-0.8-1.2-0.8-1.8c0-1.4,0.4-3.2,1.3-5.4
		c0.8-2.1,1.5-3.2,2.1-3.2c0.3,0,0.5,0.1,0.7,0.4c0.2,0.2,0.3,0.5,0.3,0.8c0,0.1-0.2,0.6-0.6,1.5c-0.4,0.8-0.8,1.8-1.2,2.9
		c-0.4,1.1-0.6,2.1-0.6,2.9c0,0.2,0.1,0.4,0.2,0.6c0.2,0.2,0.3,0.2,0.5,0.2c0.6,0,1.3-0.5,2-1.5c0.8-1,1.5-2.2,2.2-3.5
		c0.6-1.3,1.1-2.6,1.4-3.7C125,43.6,125,43.5,125.1,43.4z"/>
	<path class="st1" d="M135.6,44.3c0.6,0.7,0.9,1.3,0.9,1.8s-0.2,1.1-0.6,1.7c0.2,0.2,0.3,0.4,0.3,0.6c0,0.4-0.1,1.1-0.3,2.2
		c-0.2,1-0.3,1.7-0.3,2s-0.1,0.6-0.1,0.8s-0.1,0.4-0.1,0.6c-0.1,0.4-0.2,0.6-0.4,0.6c-0.3,0-0.5-0.2-0.7-0.7s-0.3-1.1-0.3-1.8
		c-1.3,1.7-2.6,2.5-3.7,2.5c-0.7,0-1.4-0.3-2-0.9c-0.7-0.6-1-1.2-1-1.8c0-0.9,0.3-2,1-3.4c0.7-1.3,1.5-2.5,2.6-3.6
		c1.1-1,2-1.6,3-1.6C134.4,43.3,135.1,43.6,135.6,44.3z M134.8,47.2c0-1.4-0.3-2.1-0.8-2.1c-0.6,0-1.3,0.4-2.1,1.3
		c-0.8,0.8-1.4,1.8-2,2.8c-0.5,1.1-0.8,1.9-0.8,2.5c0,0.3,0.1,0.5,0.3,0.6c0.2,0.2,0.5,0.2,0.7,0.2c0.7,0,1.5-0.5,2.4-1.4
		s1.5-2.1,1.8-3.5C134.5,47.4,134.6,47.3,134.8,47.2L134.8,47.2L134.8,47.2z"/>
	<path class="st1" d="M142.8,38.8c0,2.8-0.6,6.5-1.8,11c-0.8,3.1-1.3,4.6-1.6,4.6c-0.2,0-0.5-0.2-0.7-0.5c-0.3-0.3-0.4-0.6-0.4-0.8
		s0.2-1.1,0.7-2.8c0.4-1.7,0.9-3.8,1.3-6.2c0.4-2.5,0.7-4.7,0.7-6.6c0-0.2,0-0.4,0.1-0.5s0.2-0.1,0.4-0.1s0.5,0.2,0.8,0.6
		C142.6,38,142.8,38.4,142.8,38.8z"/>
	<path class="st1" d="M146.7,43.3c0.3,0,0.6,0.2,0.8,0.5c0.3,0.3,0.4,0.7,0.4,1s-0.2,1.3-0.7,3c-0.4,1.6-1,3.5-1.6,5.5
		c-0.3,0.8-0.6,1.1-1,1.1c-0.2,0-0.4-0.1-0.5-0.3c-0.2-0.2-0.2-0.4-0.2-0.6c0-0.2,0.1-0.6,0.2-1c0.1-0.5,0.3-1.1,0.5-1.9
		s0.4-1.4,0.5-1.9s0.3-1.1,0.4-1.7c0.1-0.6,0.2-1.1,0.3-1.5s0.2-0.8,0.3-1.2C146.2,43.6,146.4,43.3,146.7,43.3z M146.8,40
		c0-0.3,0.1-0.6,0.4-0.9c0.2-0.3,0.5-0.4,0.7-0.4s0.5,0.3,0.9,0.9c0.3,0.6,0.5,1.1,0.5,1.5c0,0.2-0.1,0.3-0.2,0.4
		c-0.1,0.1-0.3,0.2-0.4,0.2c-0.4,0-0.8-0.2-1.2-0.7C147,40.7,146.8,40.3,146.8,40z"/>
	<path class="st1" d="M151.8,52.2c0,0.3,0.2,0.4,0.5,0.4c0.6,0,1.3-0.2,2.1-0.5s1.3-0.5,1.4-0.5c0.3,0,0.4,0.1,0.4,0.4
		c0,0.4-0.4,0.9-1.3,1.5s-1.7,0.9-2.4,0.9s-1.3-0.2-1.8-0.6c-0.5-0.4-0.7-0.8-0.7-1.2s0.1-1,0.3-1.6c0.2-0.7,0.4-1.5,0.8-2.6
		c0.3-1.1,0.6-2,0.8-2.7c-0.7,0.2-1.2,0.2-1.4,0.2s-0.5-0.1-0.7-0.4c-0.2-0.2-0.3-0.5-0.3-0.7c0-0.4,1-0.7,2.9-1
		c0.3-1.2,0.4-2.4,0.4-3.3c0-0.5,0.2-0.7,0.5-0.7s0.6,0.2,0.9,0.5c0.4,0.3,0.6,0.7,0.6,1.1s-0.1,1.1-0.4,2.1
		c0.9-0.1,1.5-0.1,2.1-0.1c0.9,0,1.4,0.2,1.4,0.6c0,0.2-0.2,0.4-0.7,0.6c-0.5,0.2-1.5,0.4-3.1,0.7c-0.3,1.2-0.7,2.5-1.2,4.1
		C152,50.9,151.8,51.9,151.8,52.2z"/>
	<path class="st1" d="M166.8,43.3c0.2,0,0.5,0.2,0.8,0.5c0.3,0.4,0.4,0.7,0.4,1.2c0,0.3-0.3,1.3-0.9,3.1s-1,2.9-1.3,3.6
		c-0.2,0.6-0.5,1.5-0.9,2.5s-0.7,2-1.1,3c-0.8,2.2-1.9,3.2-3.4,3.2c-0.9,0-1.7-0.3-2.5-0.8s-1.2-1.1-1.2-1.6c0-0.2,0.1-0.4,0.3-0.7
		s0.3-0.4,0.5-0.4c0.1,0,0.4,0.2,0.7,0.5c0.9,1,1.6,1.5,2.2,1.5c0.5,0,0.9-0.4,1.3-1.2c0.4-0.8,0.7-1.7,1.1-2.8
		c0.3-1,0.5-1.6,0.6-1.7c0-0.1,0.1-0.2,0.1-0.4c0.1-0.2,0.1-0.3,0.1-0.5c-1.1,1.5-2.1,2.2-3.2,2.2c-0.6,0-1.2-0.3-1.7-0.9
		c-0.5-0.6-0.8-1.3-0.8-2.1s0.2-1.9,0.6-3.2c0.4-1.4,0.8-2.5,1.4-3.5c0.5-1,1-1.5,1.3-1.5s0.5,0.1,0.8,0.4c0.2,0.2,0.3,0.5,0.3,0.8
		s-0.2,0.8-0.6,1.6c-1.2,2.5-1.8,4.4-1.8,5.8c0,0.2,0.1,0.4,0.2,0.6c0.2,0.2,0.3,0.2,0.5,0.2c0.5,0,1.2-0.5,1.9-1.4
		c0.8-1,1.4-2.1,2.1-3.4c0.5-1.1,1.1-2.5,1.6-4.3C166.4,43.3,166.6,43.3,166.8,43.3z"/>
	<path class="st1" d="M179.2,54.5c-0.2,0-0.4-0.1-0.6-0.4c-0.2-0.3-0.3-0.5-0.3-0.7s0.1-0.5,0.2-1.1c0.8-2.7,1.3-4.6,1.5-5.8
		c-0.6,0.2-1.1,0.2-1.3,0.2s-0.5-0.1-0.7-0.3s-0.4-0.4-0.4-0.7s0.3-0.5,1-0.7c0.9-0.2,1.5-0.3,1.8-0.4c0.2-0.7,0.3-1.3,0.3-1.7
		c0.4-2.1,0.9-3.6,1.5-4.5s1.5-1.4,2.5-1.4c0.8,0,1.4,0.3,1.8,0.9c0.5,0.6,0.7,1.3,0.7,2.1s-0.2,1.2-0.6,1.2c-0.4,0-0.7-0.4-0.9-1.2
		c-0.1-0.3-0.2-0.6-0.4-0.8c-0.2-0.3-0.4-0.4-0.7-0.4s-0.5,0.1-0.7,0.3s-0.4,0.6-0.6,1c-0.4,1.2-0.7,2.3-0.9,3.3l-0.2,0.8
		c0.6-0.1,1.1-0.1,1.7-0.1s0.9,0.1,1.2,0.2c0.2,0.1,0.4,0.3,0.4,0.5c0,0.3-0.2,0.5-0.7,0.7s-1.5,0.3-2.9,0.6
		c-1.1,4.3-1.8,6.9-2.2,7.7C179.6,54.3,179.4,54.5,179.2,54.5z"/>
	<path class="st1" d="M187,47.3c0.5-1.2,1.2-2.1,2.1-2.9c0.9-0.8,1.7-1.1,2.6-1.1s1.6,0.4,2.2,1.1c0.6,0.8,0.9,1.7,0.9,2.8
		s-0.3,2.2-0.8,3.3s-1.3,2.1-2.2,2.8s-1.9,1.1-2.9,1.1c-0.8,0-1.4-0.4-1.9-1.1c-0.5-0.7-0.8-1.6-0.8-2.7S186.5,48.5,187,47.3z
		 M192.9,47.1c0-0.5-0.1-1-0.2-1.5c-0.2-0.5-0.4-0.8-0.7-1c-1,0.3-1.9,1.1-2.7,2.4c-0.7,1.3-1.1,2.6-1.1,3.7c0,1.2,0.3,1.9,0.9,2.2
		c1.1-0.2,2-1,2.8-2.2C192.5,49.4,192.9,48.2,192.9,47.1z"/>
	<path class="st1" d="M197.7,46l-0.1-1.7c0-0.7,0.2-1.1,0.5-1.1s0.6,0.2,0.8,0.6c0.3,0.4,0.4,0.8,0.4,1.3s0,0.9,0,1.1
		c1.3-2,2.5-3,3.7-3c0.7,0,1.1,0.2,1.1,0.5c0,0.2-0.1,0.3-0.2,0.5s-0.4,0.3-0.8,0.5c-0.8,0.3-1.5,0.9-2,1.6c-0.6,0.7-1,1.5-1.3,2.4
		s-0.6,1.7-0.8,2.3s-0.4,1.1-0.5,1.4c-0.1,0.3-0.2,0.7-0.4,1c-0.2,0.6-0.5,0.9-0.8,0.9s-0.5-0.1-0.6-0.4c-0.2-0.3-0.2-0.6-0.2-0.9
		c0-0.3,0.1-0.8,0.4-1.7C197.4,49.6,197.7,47.8,197.7,46z"/>
	<path class="st1" d="M213.8,54.4c-0.2,0-0.5-0.2-0.7-0.5s-0.4-0.6-0.4-0.9c0-0.3,0.2-1.3,0.7-2.9c0.5-1.7,0.9-3.7,1.4-6
		c0.5-2.4,0.7-4.5,0.7-6.5c0-0.5,0.2-0.7,0.5-0.7c0.2,0,0.5,0.2,0.9,0.7c0.3,0.4,0.5,0.9,0.5,1.3c0,1.9-0.4,4.5-1.2,7.9
		c1.8-2.4,3.4-3.6,4.9-3.6c0.7,0,1.3,0.3,1.8,1s0.7,1.5,0.7,2.5s-0.3,2-0.8,3.3c-0.5,1.2-1.3,2.3-2.2,3.2s-1.9,1.3-2.9,1.3
		s-2-0.5-3-1.6l0,0C214.2,53.9,214,54.4,213.8,54.4z M217.4,52.7c1,0,1.9-0.7,2.9-2s1.4-2.7,1.4-4.2c0-0.9-0.3-1.3-0.8-1.3
		c-0.9,0-1.8,0.6-2.9,1.8c-1.1,1.2-2,2.7-2.8,4.4C215.9,52.3,216.6,52.7,217.4,52.7z"/>
	<path class="st1" d="M233.7,47c0,0.8-0.4,1.5-1.3,2c-0.9,0.5-1.8,0.8-2.9,0.8c-1.1,0-2.1-0.1-3-0.4c-0.2,0.7-0.3,1.3-0.3,1.8
		s0.2,0.9,0.5,1.2s0.9,0.4,1.6,0.4c0.7,0,1.5-0.1,2.3-0.4c0.8-0.3,1.2-0.4,1.3-0.4c0.4,0,0.6,0.2,0.6,0.5c0,0.4-0.5,0.8-1.4,1.3
		s-1.8,0.7-2.7,0.7c-1.2,0-2.1-0.3-2.9-1c-0.7-0.7-1.1-1.6-1.1-2.7c0-1.1,0.3-2.2,0.9-3.4c0.6-1.2,1.3-2.1,2.2-2.9
		c0.9-0.8,1.8-1.2,2.7-1.2s1.7,0.4,2.4,1.3C233.3,45.4,233.7,46.2,233.7,47z M230.3,45c-0.6,0-1.1,0.3-1.7,0.9
		c-0.6,0.6-1.1,1.3-1.5,2.2c0.6,0.1,1.3,0.2,2.1,0.2s1.4-0.1,2-0.4c0.6-0.2,0.9-0.6,0.9-1s-0.2-0.8-0.6-1.2
		C231,45.2,230.6,45,230.3,45z"/>
	<path class="st1" d="M241.3,43.3c0.5,0,1,0.3,1.4,0.8s0.7,1.1,0.7,1.5c0,0.3-0.1,0.4-0.4,0.4c-0.2,0-0.4-0.1-0.8-0.4
		c-0.3-0.3-0.7-0.4-1.1-0.4s-0.9,0.2-1.7,0.6c-0.8,0.4-1.2,0.9-1.2,1.3c0,0.3,0.7,0.9,2.1,1.8c0.5,0.3,1,0.8,1.4,1.3
		s0.6,1.1,0.6,1.7c0,0.6-0.4,1.2-1.2,1.7c-0.8,0.6-1.8,0.8-2.9,0.8s-2.1-0.3-2.9-0.8c-0.8-0.5-1.3-1-1.3-1.5c0-0.2,0-0.3,0.1-0.5
		c0.1-0.1,0.2-0.2,0.4-0.2s0.4,0.1,0.6,0.3c0.8,0.6,1.7,0.9,2.5,0.9c0.9,0,1.5-0.1,1.9-0.3s0.6-0.5,0.6-0.8s-0.2-0.7-0.7-1.1
		c-0.4-0.4-0.9-0.7-1.4-1s-1-0.7-1.4-1.1c-0.4-0.4-0.7-0.9-0.7-1.3c0-0.8,0.6-1.6,1.9-2.5C239.4,43.7,240.5,43.3,241.3,43.3z"/>
	<path class="st1" d="M247,52.2c0,0.3,0.2,0.4,0.5,0.4c0.6,0,1.3-0.2,2.1-0.5s1.3-0.5,1.4-0.5c0.3,0,0.4,0.1,0.4,0.4
		c0,0.4-0.4,0.9-1.3,1.5c-0.9,0.6-1.7,0.9-2.4,0.9s-1.3-0.2-1.8-0.6c-0.5-0.4-0.7-0.8-0.7-1.2s0.1-1,0.3-1.6
		c0.2-0.7,0.4-1.5,0.8-2.6c0.3-1.1,0.6-2,0.8-2.7c-0.7,0.2-1.2,0.2-1.4,0.2s-0.5-0.1-0.7-0.4c-0.2-0.2-0.3-0.5-0.3-0.7
		c0-0.4,1-0.7,2.9-1c0.3-1.2,0.4-2.4,0.4-3.3c0-0.5,0.2-0.7,0.5-0.7s0.6,0.2,0.9,0.5c0.4,0.3,0.6,0.7,0.6,1.1s-0.1,1.1-0.4,2.1
		c0.9-0.1,1.5-0.1,2.1-0.1c0.9,0,1.4,0.2,1.4,0.6c0,0.2-0.2,0.4-0.7,0.6c-0.5,0.2-1.5,0.4-3.1,0.7c-0.3,1.2-0.7,2.5-1.2,4.1
		C247.2,50.9,247,51.9,247,52.2z"/>
	<path class="st1" d="M263.6,46l-0.1-1.7c0-0.7,0.2-1.1,0.5-1.1s0.6,0.2,0.8,0.6c0.3,0.4,0.4,0.8,0.4,1.3s0,0.9,0,1.1
		c1.3-2,2.5-3,3.7-3c0.7,0,1.1,0.2,1.1,0.5c0,0.2-0.1,0.3-0.2,0.5c-0.2,0.2-0.4,0.3-0.8,0.5c-0.8,0.3-1.5,0.9-2,1.6
		c-0.6,0.7-1,1.5-1.3,2.4s-0.6,1.7-0.8,2.3c-0.2,0.6-0.4,1.1-0.5,1.4c-0.1,0.3-0.2,0.7-0.4,1c-0.2,0.6-0.5,0.9-0.8,0.9
		s-0.5-0.1-0.6-0.4c-0.2-0.3-0.2-0.6-0.2-0.9c0-0.3,0.1-0.8,0.4-1.7C263.3,49.6,263.6,47.8,263.6,46z"/>
	<path class="st1" d="M278.7,47c0,0.8-0.4,1.5-1.3,2s-1.8,0.8-2.9,0.8s-2.1-0.1-3-0.4c-0.2,0.7-0.3,1.3-0.3,1.8s0.2,0.9,0.5,1.2
		s0.9,0.4,1.6,0.4s1.5-0.1,2.3-0.4c0.8-0.3,1.2-0.4,1.3-0.4c0.4,0,0.6,0.2,0.6,0.5c0,0.4-0.5,0.8-1.4,1.3s-1.8,0.7-2.7,0.7
		c-1.2,0-2.1-0.3-2.9-1c-0.7-0.7-1.1-1.6-1.1-2.7c0-1.1,0.3-2.2,0.9-3.4s1.3-2.1,2.2-2.9c0.9-0.8,1.8-1.2,2.7-1.2s1.7,0.4,2.4,1.3
		C278.3,45.4,278.7,46.2,278.7,47z M275.3,45c-0.6,0-1.1,0.3-1.7,0.9c-0.6,0.6-1.1,1.3-1.5,2.2c0.6,0.1,1.3,0.2,2.1,0.2
		c0.8,0,1.4-0.1,2-0.4c0.6-0.2,0.9-0.6,0.9-1s-0.2-0.8-0.6-1.2C276,45.2,275.6,45,275.3,45z"/>
	<path class="st1" d="M286.3,43.3c0.5,0,1,0.3,1.4,0.8s0.7,1.1,0.7,1.5c0,0.3-0.1,0.4-0.4,0.4c-0.2,0-0.4-0.1-0.8-0.4
		c-0.3-0.3-0.7-0.4-1.1-0.4s-0.9,0.2-1.7,0.6c-0.8,0.4-1.2,0.9-1.2,1.3c0,0.3,0.7,0.9,2.1,1.8c0.5,0.3,1,0.8,1.4,1.3
		s0.6,1.1,0.6,1.7c0,0.6-0.4,1.2-1.2,1.7c-0.8,0.6-1.8,0.8-2.9,0.8s-2.1-0.3-2.9-0.8s-1.3-1-1.3-1.5c0-0.2,0-0.3,0.1-0.5
		c0.1-0.1,0.2-0.2,0.4-0.2c0.2,0,0.4,0.1,0.6,0.3c0.8,0.6,1.7,0.9,2.5,0.9c0.9,0,1.5-0.1,1.9-0.3s0.6-0.5,0.6-0.8s-0.2-0.7-0.7-1.1
		c-0.4-0.4-0.9-0.7-1.4-1s-1-0.7-1.4-1.1c-0.4-0.4-0.7-0.9-0.7-1.3c0-0.8,0.6-1.6,1.9-2.5C284.4,43.7,285.5,43.3,286.3,43.3z"/>
	<path class="st1" d="M297.6,43.4c0.1-0.1,0.2-0.1,0.4-0.1c0.2,0,0.5,0.2,0.7,0.6c0.3,0.4,0.4,0.8,0.4,1.1c0,0.2-0.3,1.4-1,3.5
		s-1.2,3.8-1.5,5.1c-0.2,0.6-0.4,0.9-0.8,0.9c-0.2,0-0.4-0.1-0.5-0.2c-0.1-0.2-0.2-0.5-0.2-0.9s0.2-1.2,0.5-2.4
		c-0.6,1-1.3,1.9-2.1,2.5c-0.7,0.7-1.4,1-2,1s-1.2-0.3-1.7-0.9c-0.5-0.6-0.8-1.2-0.8-1.8c0-1.4,0.4-3.2,1.3-5.4
		c0.8-2.1,1.5-3.2,2.1-3.2c0.3,0,0.5,0.1,0.7,0.4c0.2,0.2,0.3,0.5,0.3,0.8c0,0.1-0.2,0.6-0.6,1.5c-0.4,0.8-0.8,1.8-1.2,2.9
		c-0.4,1.1-0.6,2.1-0.6,2.9c0,0.2,0.1,0.4,0.2,0.6c0.2,0.2,0.3,0.2,0.5,0.2c0.6,0,1.3-0.5,2-1.5c0.8-1,1.5-2.2,2.2-3.5
		c0.6-1.3,1.1-2.6,1.4-3.7C297.5,43.6,297.6,43.5,297.6,43.4z"/>
	<path class="st1" d="M304.8,38.8c0,2.8-0.6,6.5-1.8,11c-0.8,3.1-1.3,4.6-1.6,4.6c-0.2,0-0.5-0.2-0.7-0.5c-0.3-0.3-0.4-0.6-0.4-0.8
		s0.2-1.1,0.7-2.8c0.4-1.7,0.9-3.8,1.3-6.2c0.4-2.5,0.7-4.7,0.7-6.6c0-0.2,0-0.4,0.1-0.5s0.2-0.1,0.4-0.1c0.2,0,0.5,0.2,0.8,0.6
		C304.6,38,304.8,38.4,304.8,38.8z"/>
	<path class="st1" d="M308.4,52.2c0,0.3,0.2,0.4,0.5,0.4c0.6,0,1.3-0.2,2.1-0.5s1.3-0.5,1.4-0.5c0.3,0,0.4,0.1,0.4,0.4
		c0,0.4-0.4,0.9-1.3,1.5s-1.7,0.9-2.4,0.9c-0.7,0-1.3-0.2-1.8-0.6c-0.5-0.4-0.7-0.8-0.7-1.2s0.1-1,0.3-1.6c0.2-0.7,0.4-1.5,0.8-2.6
		c0.3-1.1,0.6-2,0.8-2.7c-0.7,0.2-1.2,0.2-1.4,0.2s-0.5-0.1-0.7-0.4c-0.2-0.2-0.3-0.5-0.3-0.7c0-0.4,1-0.7,2.9-1
		c0.3-1.2,0.4-2.4,0.4-3.3c0-0.5,0.2-0.7,0.5-0.7s0.6,0.2,0.9,0.5c0.4,0.3,0.6,0.7,0.6,1.1s-0.1,1.1-0.4,2.1
		c0.9-0.1,1.5-0.1,2.1-0.1c0.9,0,1.4,0.2,1.4,0.6c0,0.2-0.2,0.4-0.7,0.6c-0.5,0.2-1.5,0.4-3.1,0.7c-0.3,1.2-0.7,2.5-1.2,4.1
		C308.6,50.9,308.4,51.9,308.4,52.2z"/>
	<path class="st1" d="M321,43.3c0.5,0,1,0.3,1.4,0.8s0.7,1.1,0.7,1.5c0,0.3-0.1,0.4-0.4,0.4c-0.2,0-0.4-0.1-0.8-0.4
		c-0.3-0.3-0.7-0.4-1.1-0.4s-0.9,0.2-1.7,0.6c-0.8,0.4-1.2,0.9-1.2,1.3c0,0.3,0.7,0.9,2.1,1.8c0.5,0.3,1,0.8,1.4,1.3
		s0.6,1.1,0.6,1.7c0,0.6-0.4,1.2-1.2,1.7c-0.8,0.6-1.8,0.8-2.9,0.8s-2.1-0.3-2.9-0.8s-1.3-1-1.3-1.5c0-0.2,0-0.3,0.1-0.5
		c0.1-0.1,0.2-0.2,0.4-0.2s0.4,0.1,0.6,0.3c0.8,0.6,1.7,0.9,2.5,0.9c0.9,0,1.5-0.1,1.9-0.3s0.6-0.5,0.6-0.8s-0.2-0.7-0.7-1.1
		c-0.4-0.4-0.9-0.7-1.4-1s-1-0.7-1.4-1.1c-0.4-0.4-0.7-0.9-0.7-1.3c0-0.8,0.6-1.6,1.9-2.5C319.2,43.7,320.2,43.3,321,43.3z"/>
	<path class="st1" d="M333.1,41.9c0,1.4-0.2,2.9-0.6,4.3c-0.4,1.4-0.9,2.6-1.6,3.7c-0.6,1-1.4,2-2.1,2.9c-0.8,0.9-1.5,1.6-2.3,2.2
		c-1.6,1.2-2.6,1.8-3.2,1.8c-0.3,0-0.5-0.1-0.5-0.4c0-0.3,0.7-1,2.1-2.3c1.4-1.2,2.7-2.7,4-4.6c0.6-0.9,1.1-2,1.5-3.2
		s0.6-2.4,0.6-3.4c0-1.1-0.1-2-0.4-2.6c-0.2-0.7-0.5-1.2-0.9-1.6c-0.4-0.4-0.7-0.7-1.1-1s-0.7-0.5-0.9-0.8c-0.2-0.2-0.4-0.5-0.4-0.7
		c0-0.6,0.4-1,1.3-1c1,0,2,0.6,3,1.9C332.6,38.6,333.1,40.1,333.1,41.9z"/>
</g>
</svg>
