<svg xmlns="http://www.w3.org/2000/svg" viewBox="0 0 340.21 67.11"><defs><style>.cls-1{fill:#0466c8;}.cls-2{fill:#33415c;}.cls-3{font-size:40px;fill:#fff;font-family:Lemon-Regular, Lemon;}</style></defs><title>logo</title><g id="Layer_2" data-name="Layer 2"><g id="Layer_1-2" data-name="Layer 1"><path class="cls-1" d="M10,0H192a0,0,0,0,1,0,0V67.11a0,0,0,0,1,0,0H10a10,10,0,0,1-10-10V10A10,10,0,0,1,10,0Z"/><path class="cls-2" d="M192,0H330.21a10,10,0,0,1,10,10V57.11a10,10,0,0,1-10,10H192a0,0,0,0,1,0,0V0A0,0,0,0,1,192,0Z"/><text class="cls-3" transform="translate(13.33 44.95)">sunday</text><text class="cls-3" transform="translate(196.18 45.45)">cases</text></g></g></svg>