<svg id="Layer_1" data-name="Layer 1" xmlns="http://www.w3.org/2000/svg" viewBox="0 0 303.24 40.4"><defs><style>.cls-1{isolation:isolate;}.cls-2{fill:#0466c8;}.cls-3{fill:#33415c;}</style></defs><title>logo</title><g id="Layer_2" data-name="Layer 2"><g id="Layer_1-2" data-name="Layer 1-2"><g class="cls-1"><g class="cls-1"><path class="cls-2" d="M15,12.32a5.77,5.77,0,0,0-2.36,1.26A7.12,7.12,0,0,0,11,15.92q6.77,1,9.52,2.88a6.1,6.1,0,0,1,2.76,5.36A6.08,6.08,0,0,1,22.08,28,8,8,0,0,1,19,30.44,18.46,18.46,0,0,1,11.72,32Q1.59,32,1.6,27.64a6.65,6.65,0,0,1,2-4.4,8,8,0,0,0,3,2.4,8.82,8.82,0,0,0,3.94,1c2.21,0,3.55-1,4-2.92-4-.48-7-1.39-8.8-2.72A6.59,6.59,0,0,1,3,15.36a6.68,6.68,0,0,1,1.9-4.84A10.22,10.22,0,0,1,9.62,7.78,23.87,23.87,0,0,1,16,7a11.5,11.5,0,0,1,5.84,1.34c1.53.89,2.3,2,2.3,3.26a3.53,3.53,0,0,1-1.34,3,4.68,4.68,0,0,1-2.92,1A5.21,5.21,0,0,1,17,14.76,5.46,5.46,0,0,1,15,12.32Z" transform="translate(-1.6)"/><path class="cls-2" d="M34.64,32q-3.53,0-4.92-1.72a6.67,6.67,0,0,1-1.4-4.34,40,40,0,0,1,.88-7.18,39.24,39.24,0,0,0,.88-6.6A5.36,5.36,0,0,0,29.24,9a14.09,14.09,0,0,1,6.28-2,3.53,3.53,0,0,1,2.38.66,2.74,2.74,0,0,1,.74,2.14,50.65,50.65,0,0,1-1.22,7.26A52,52,0,0,0,36.2,24.2,2.92,2.92,0,0,0,37,26.34a2.67,2.67,0,0,0,2,.78,4.68,4.68,0,0,0,2.64-1,7.15,7.15,0,0,0,2.28-2.78q.55-3.24,2.2-10.24l-2.4-3.2A13.24,13.24,0,0,1,51.36,7a4,4,0,0,1,2.58.66,2.48,2.48,0,0,1,.78,2,54.56,54.56,0,0,1-1.46,7.66,46.7,46.7,0,0,0-1.46,9c0,1.77.41,3,1.24,3.74a7,7,0,0,1-4.7,2,4.87,4.87,0,0,1-3.54-1.08,3.85,3.85,0,0,1-1.08-2.84l-.4-.2a8.91,8.91,0,0,1-3.66,3A11.69,11.69,0,0,1,34.64,32Z" transform="translate(-1.6)"/><path class="cls-2" d="M63.08,32a4.46,4.46,0,0,1-3.48-1.24,4.7,4.7,0,0,1-1.12-3.28,42.7,42.7,0,0,1,.82-6.64c.55-3.07,1.11-5.87,1.7-8.4l-2.08-3.2A15.09,15.09,0,0,1,66.24,7q3.36,0,3.36,3a10.12,10.12,0,0,1-.92,4.08l.4.2Q73.36,7,80,7q4.85,0,4.84,4.84a35.21,35.21,0,0,1-1.18,7,35.35,35.35,0,0,0-1.18,7.48A6.35,6.35,0,0,0,83.28,30a6.52,6.52,0,0,1-4.48,2q-4.6,0-4.6-5a27.73,27.73,0,0,1,1.2-6.24,29.09,29.09,0,0,0,1.2-5.72c0-1.2-.45-1.8-1.36-1.8a4.75,4.75,0,0,0-2.56,1A12.87,12.87,0,0,0,69.9,16.9a14.59,14.59,0,0,0-2.26,4.2,15.1,15.1,0,0,0-.92,5.16A6.56,6.56,0,0,0,67.56,30,6.52,6.52,0,0,1,63.08,32Z" transform="translate(-1.6)"/><path class="cls-2" d="M103.88,28.08l-.4-.2Q100.36,32,96,32a7,7,0,0,1-5.42-2.54A10.05,10.05,0,0,1,88.4,22.6a14.65,14.65,0,0,1,3.76-9.76,13.31,13.31,0,0,1,4.92-3.5A17.13,17.13,0,0,1,104,8c.48,0,1.33.05,2.56.16a14.76,14.76,0,0,1,.36-2l-2.24-3.2q5-2.92,7.88-2.92a3.28,3.28,0,0,1,2.32.66,3.47,3.47,0,0,1,.68,2.48,77.44,77.44,0,0,1-1.78,10.26,67.22,67.22,0,0,0-1.78,12c0,2.36.41,3.91,1.24,4.66a7,7,0,0,1-4.66,2A4.61,4.61,0,0,1,105,30.78,3.88,3.88,0,0,1,103.88,28.08Zm-8-7a5.19,5.19,0,0,0,1.18,3.6A3.79,3.79,0,0,0,100,26a5.46,5.46,0,0,0,4.16-2.16A98.66,98.66,0,0,1,106,11.52a9.74,9.74,0,0,0-10.08,9.56Z" transform="translate(-1.6)"/><path class="cls-2" d="M133.6,26.08l-.4-.2a10.25,10.25,0,0,1-3.1,4.5A7,7,0,0,1,125.6,32a6.59,6.59,0,0,1-5.44-2.56,10.68,10.68,0,0,1-2-6.84A15.27,15.27,0,0,1,133.68,7a14.83,14.83,0,0,1,3.16.32,12.77,12.77,0,0,1,.28,2A7.55,7.55,0,0,1,141.24,8c1.94,0,2.92,1.05,2.92,3.16a50.91,50.91,0,0,1-1.26,6.76,42.77,42.77,0,0,0-1.26,8.36c0,1.81.41,3.07,1.24,3.76a7,7,0,0,1-4.66,2,4.14,4.14,0,0,1-3.52-1.44A7.33,7.33,0,0,1,133.6,26.08Zm-8-5.44a4.82,4.82,0,0,0,.82,3,2.76,2.76,0,0,0,2.34,1.06,4.94,4.94,0,0,0,3-1.12,8.89,8.89,0,0,0,2.48-3.08A79.06,79.06,0,0,1,135.84,11a10,10,0,0,0-7.12,2.92A9.07,9.07,0,0,0,125.64,20.64Z" transform="translate(-1.6)"/><path class="cls-2" d="M159.24,30.2a11.11,11.11,0,0,1-3.76.68,4.59,4.59,0,0,1-3.16-1.12,4.45,4.45,0,0,1-1.48-3q-.21-1.92-.36-5.58c-.11-2.44-.22-4.17-.32-5.18q-.53-5.09-3.2-7.24A6.69,6.69,0,0,1,151.68,7a4.58,4.58,0,0,1,2.72.82A6.11,6.11,0,0,1,156.26,10a14,14,0,0,1,1.14,3.46,52.86,52.86,0,0,1,.68,9.52q0,1.48-.12,3.48h2.32q4.11-11.11,4.12-15.16a5.64,5.64,0,0,0-.6-2.56A9.65,9.65,0,0,1,168.68,7c2.58,0,3.88,1.49,3.88,4.48q0,3.56-3.28,12.52c-.4,1.09-.63,1.73-.68,1.92q-5.08,14.47-14.44,14.48a8.3,8.3,0,0,1-4.68-1.22,3.68,3.68,0,0,1-1.84-3.2,7.35,7.35,0,0,1,1.48-4.14,5.71,5.71,0,0,0,4.8,2.72A5,5,0,0,0,157,33.48,7.26,7.26,0,0,0,159.24,30.2Z" transform="translate(-1.6)"/></g><g class="cls-1"><path class="cls-3" d="M175.56,21.48A13.53,13.53,0,0,1,180,11,15.77,15.77,0,0,1,191,7a9.86,9.86,0,0,1,5.44,1.3,3.82,3.82,0,0,1,2,3.26,3.57,3.57,0,0,1-1.34,3,4.68,4.68,0,0,1-2.92,1,5.21,5.21,0,0,1-2.88-.84,5.46,5.46,0,0,1-2-2.44,8,8,0,0,0-4,3.68,10.86,10.86,0,0,0-1.46,5.28,7.91,7.91,0,0,0,1,4.28,3.12,3.12,0,0,0,2.72,1.64,3.6,3.6,0,0,0,2.74-1.12,4.65,4.65,0,0,0,1.06-3.32q5.84,0,5.84,2.76c0,1.57-1,3.05-3,4.42a13.4,13.4,0,0,1-7.8,2.06,11,11,0,0,1-7.9-2.9A10,10,0,0,1,175.56,21.48Z" transform="translate(-1.6)"/><path class="cls-3" d="M216.36,26.08l-.4-.2a10.17,10.17,0,0,1-3.1,4.5,7,7,0,0,1-4.5,1.62,6.59,6.59,0,0,1-5.44-2.56,10.68,10.68,0,0,1-2-6.84A15.27,15.27,0,0,1,216.44,7a14.76,14.76,0,0,1,3.16.32,12.77,12.77,0,0,1,.28,2A7.58,7.58,0,0,1,224,8q2.92,0,2.92,3.16a50.91,50.91,0,0,1-1.26,6.76,42.77,42.77,0,0,0-1.26,8.36c0,1.81.41,3.07,1.24,3.76A7,7,0,0,1,221,32a4.15,4.15,0,0,1-3.52-1.44A7.4,7.4,0,0,1,216.36,26.08Zm-8-5.44a4.82,4.82,0,0,0,.82,3,2.78,2.78,0,0,0,2.34,1.06,4.94,4.94,0,0,0,3-1.12A8.78,8.78,0,0,0,217,20.52,79.06,79.06,0,0,1,218.6,11a10,10,0,0,0-7.12,2.92A9.07,9.07,0,0,0,208.4,20.64Z" transform="translate(-1.6)"/><path class="cls-3" d="M243.68,12.32a5.77,5.77,0,0,0-2.36,1.26,7.12,7.12,0,0,0-1.56,2.34q6.77,1,9.52,2.88A6.1,6.1,0,0,1,252,24.16,6.14,6.14,0,0,1,250.8,28a8,8,0,0,1-3.12,2.46A18.46,18.46,0,0,1,240.44,32q-10.12,0-10.12-4.36a6.65,6.65,0,0,1,2-4.4,8,8,0,0,0,3,2.4,8.82,8.82,0,0,0,3.94,1c2.21,0,3.55-1,4-2.92-4.05-.48-7-1.39-8.8-2.72a6.57,6.57,0,0,1-2.72-5.64,6.68,6.68,0,0,1,1.9-4.84,10.17,10.17,0,0,1,4.72-2.74A23.87,23.87,0,0,1,244.7,7a11.52,11.52,0,0,1,5.84,1.34c1.53.89,2.3,2,2.3,3.26a3.53,3.53,0,0,1-1.34,3,4.68,4.68,0,0,1-2.92,1,5.21,5.21,0,0,1-2.88-.84A5.46,5.46,0,0,1,243.68,12.32Z" transform="translate(-1.6)"/><path class="cls-3" d="M267.68,32q-5.48,0-8.46-2.84a10.09,10.09,0,0,1-3-7.68A13.47,13.47,0,0,1,260.66,11a15.85,15.85,0,0,1,11.1-4,8.38,8.38,0,0,1,5.64,1.66A5.52,5.52,0,0,1,279.32,13a7.28,7.28,0,0,1-3.62,6.18q-3.61,2.46-11.18,2.5a7.46,7.46,0,0,0,1.16,4,3.1,3.1,0,0,0,2.6,1.46,3.89,3.89,0,0,0,2.7-1,4.41,4.41,0,0,0,1.14-3.4q5.83,0,5.84,2.76c0,1.57-1,3.05-2.88,4.42A12.45,12.45,0,0,1,267.68,32Zm3.4-20.32a4.86,4.86,0,0,0-3.74,2,12.58,12.58,0,0,0-2.46,4.8,11.66,11.66,0,0,0,6-1.82,4.1,4.1,0,0,0,2-3.18,1.85,1.85,0,0,0-.5-1.32A1.77,1.77,0,0,0,271.08,11.68Z" transform="translate(-1.6)"/><path class="cls-3" d="M295.68,12.32a5.7,5.7,0,0,0-2.36,1.26,7.12,7.12,0,0,0-1.56,2.34q6.75,1,9.52,2.88A6.1,6.1,0,0,1,304,24.16,6.14,6.14,0,0,1,302.8,28a8,8,0,0,1-3.12,2.46A18.5,18.5,0,0,1,292.44,32q-10.12,0-10.12-4.36a6.65,6.65,0,0,1,2-4.4,7.92,7.92,0,0,0,3,2.4,8.78,8.78,0,0,0,3.94,1c2.21,0,3.55-1,4-2.92q-6.09-.72-8.8-2.72a6.57,6.57,0,0,1-2.72-5.64,6.68,6.68,0,0,1,1.9-4.84,10.17,10.17,0,0,1,4.72-2.74A23.87,23.87,0,0,1,296.7,7a11.52,11.52,0,0,1,5.84,1.34c1.53.89,2.3,2,2.3,3.26a3.53,3.53,0,0,1-1.34,3,4.7,4.7,0,0,1-2.92,1,5.16,5.16,0,0,1-2.88-.84A5.46,5.46,0,0,1,295.68,12.32Z" transform="translate(-1.6)"/></g></g></g></g></svg>