<svg xmlns="http://www.w3.org/2000/svg" viewBox="0 0 526.77 140.37"><defs><style>.cls-1{fill:#283b82;}.cls-2{fill:#469bdb;}</style></defs><title>Asset 1</title><g id="Layer_2" data-name="Layer 2"><g id="svg2"><g id="g10"><g id="g12"><path id="path14" class="cls-1" d="M63.21,0h-41a5.71,5.71,0,0,0-5.63,4.81L0,109.88a3.41,3.41,0,0,0,3.38,3.94H23A5.7,5.7,0,0,0,28.61,109l4.47-28.34a5.69,5.69,0,0,1,5.62-4.81h13c27,0,42.56-13.06,46.63-38.94,1.84-11.33.08-20.22-5.22-26.45C87.25,3.62,76.93,0,63.21,0Zm4.73,38.38c-2.24,14.7-13.47,14.7-24.34,14.7H37.42l4.34-27.46a3.41,3.41,0,0,1,3.37-2.88H48c7.39,0,14.37,0,18,4.22,2.15,2.52,2.81,6.25,2,11.42"/><path id="path16" class="cls-1" d="M185.69,37.91H166.07a3.43,3.43,0,0,0-3.38,2.88l-.86,5.48-1.38-2c-4.24-6.17-13.72-8.23-23.17-8.23-21.68,0-40.2,16.42-43.81,39.46C91.6,87,94.26,98,100.78,105.66c6,7,14.54,10,24.72,10a37.52,37.52,0,0,0,27.15-11.23l-.87,5.45a3.41,3.41,0,0,0,3.37,4h17.67a5.71,5.71,0,0,0,5.63-4.81l10.6-67.15A3.39,3.39,0,0,0,185.69,37.91ZM158.34,76.09A21.87,21.87,0,0,1,136.2,94.83C130.51,94.83,126,93,123,89.54S119,81.2,120,75.75a22,22,0,0,1,22-18.88c5.57,0,10.1,1.85,13.08,5.34s4.18,8.45,3.32,13.88"/><path id="path18" class="cls-1" d="M290.18,37.91H270.47a5.73,5.73,0,0,0-4.72,2.49L238.56,80.46,227,42a5.69,5.69,0,0,0-5.46-4.06H202.19A3.41,3.41,0,0,0,199,42.42l21.72,63.74L200.25,135a3.41,3.41,0,0,0,2.79,5.39h19.69a5.69,5.69,0,0,0,4.68-2.44L293,43.27a3.41,3.41,0,0,0-2.81-5.36"/><path id="path20" class="cls-2" d="M355.46,0h-41a5.7,5.7,0,0,0-5.62,4.81L292.29,109.88a3.41,3.41,0,0,0,3.37,3.94h21a4,4,0,0,0,3.93-3.37l4.7-29.78a5.69,5.69,0,0,1,5.62-4.81h13c27,0,42.56-13.06,46.64-38.94,1.84-11.33.07-20.22-5.23-26.45C379.5,3.62,369.18,0,355.46,0Zm4.73,38.38c-2.23,14.7-13.47,14.7-24.34,14.7h-6.17L334,25.62a3.4,3.4,0,0,1,3.37-2.88h2.83c7.4,0,14.38,0,18,4.22,2.15,2.52,2.8,6.25,2,11.42"/><path id="path22" class="cls-2" d="M477.93,37.91H458.32A3.39,3.39,0,0,0,455,40.79l-.87,5.48-1.38-2c-4.25-6.17-13.71-8.23-23.17-8.23-21.68,0-40.19,16.42-43.8,39.46-1.87,11.49.79,22.48,7.31,30.14,6,7,14.53,10,24.71,10a37.55,37.55,0,0,0,27.16-11.23l-.88,5.45a3.42,3.42,0,0,0,3.38,4h17.67a5.69,5.69,0,0,0,5.62-4.81l10.61-67.15a3.42,3.42,0,0,0-3.39-3.94ZM450.58,76.09a21.86,21.86,0,0,1-22.13,18.74c-5.69,0-10.25-1.83-13.18-5.29s-4-8.34-3.08-13.79a22,22,0,0,1,22-18.88c5.57,0,10.1,1.85,13.08,5.34s4.19,8.45,3.32,13.88"/><path id="path24" class="cls-2" d="M501.06,2.89l-16.81,107a3.4,3.4,0,0,0,3.36,3.94h16.91a5.69,5.69,0,0,0,5.63-4.81L526.73,4A3.42,3.42,0,0,0,523.36,0H504.43a3.43,3.43,0,0,0-3.37,2.89"/></g></g></g></g></svg>